<svg xmlns="http://www.w3.org/2000/svg" viewBox="0 0 55.05 55.03"><defs><style>.cls-1{fill:#cf000e;}.cls-2{fill:#ffe100;}.cls-3{fill:#4a1b00;}.cls-4{fill:#fff;}.cls-5{fill:none;}</style></defs><title>アセット 1</title><g id="レイヤー_2" data-name="レイヤー 2"><g id="レイヤー_2-2" data-name="レイヤー 2"><circle class="cls-1" cx="27.54" cy="27.51" r="27.51"/><path class="cls-2" d="M10.83,15.23a2.87,2.87,0,0,0-3.15,3,2.81,2.81,0,0,0,3.12,3A4.22,4.22,0,0,0,12.26,21v-1a3.38,3.38,0,0,1-1.4.32,1.86,1.86,0,0,1-2-2,1.88,1.88,0,0,1,2-2,3.42,3.42,0,0,1,1.43.35v-1A4,4,0,0,0,10.83,15.23Z"/><path class="cls-2" d="M15.07,16.63a4,4,0,0,0-1.72.35v1a3,3,0,0,1,1.49-.45c.6,0,.88.18.91.6h-.4c-1.23,0-2.41.43-2.41,1.71a1.49,1.49,0,0,0,1.59,1.39,2,2,0,0,0,1.28-.46v.4h1V18.32C16.82,17.25,16.32,16.63,15.07,16.63Zm-.34,3.69c-.36,0-.75-.19-.75-.58,0-.7.73-.76,1.43-.76h.35v.18A1.06,1.06,0,0,1,14.73,20.33Z"/><path class="cls-2" d="M19.67,14.91c-.94,0-1.45.56-1.45,1.58v.44h-.85v.88h.85v3.34h1.05V17.81h1v-.88h-1v-.4c0-.63.23-.72.48-.72a1.68,1.68,0,0,1,.57.15V15A2.58,2.58,0,0,0,19.67,14.91Z"/><polygon class="cls-2" points="23.89 15.11 22.66 15.11 21.93 16.25 22.73 16.25 23.89 15.11"/><path class="cls-2" d="M29.75,18.24h-1A3,3,0,0,1,26.91,20v-3.7H25.86v4.9A3.88,3.88,0,0,0,29.75,18.24Z"/><path class="cls-2" d="M33.59,20l-1-.78a5.2,5.2,0,0,0,.89-2.89H29.86v.92h2.46a4.3,4.3,0,0,1-2.53,3v1A4.79,4.79,0,0,0,32,20l1.58,1.3Z"/><rect class="cls-2" x="39.01" y="16.36" width="3.26" height="0.92"/><rect class="cls-2" x="43.39" y="16.37" width="1.86" height="0.92"/><polygon class="cls-2" points="35.61 16.34 34.56 16.34 34.56 21.16 35.61 21.16 35.61 18.75 38.04 19.17 38.04 18.2 35.61 17.78 35.61 16.34"/><path class="cls-2" d="M38.79,17.82v.92h2.77c-.09.95-1.09,1.46-2.25,1.6v.9c1.88-.13,3.31-1,3.31-2.76v-.67Z"/><path class="cls-2" d="M46,16.51v1.88c0,1.35-1.26,1.82-2.58,1.95v.89c1.81-.09,3.64-.76,3.64-2.84V16.51Z"/><path class="cls-2" d="M22.65,16.62a2.06,2.06,0,0,0-2,2.27,2.08,2.08,0,0,0,2.11,2.33,3.51,3.51,0,0,0,1.45-.32V20a2.64,2.64,0,0,1-1.39.37,1.11,1.11,0,0,1-1.14-1.08h2.86V18.8C24.54,17.48,23.82,16.62,22.65,16.62Zm0,.89c.57,0,.77.41.85.87H21.72A1,1,0,0,1,22.65,17.51Z"/><path class="cls-3" d="M2.72,27.51A24.82,24.82,0,1,0,27.54,2.69,24.85,24.85,0,0,0,2.72,27.51Zm.85,0a24,24,0,1,1,24,24A24,24,0,0,1,3.56,27.51Z"/><path class="cls-3" d="M35.66,33.91l-1.3-.74A7.89,7.89,0,0,0,36,28.43V26.61A2.61,2.61,0,0,0,33.39,24h-9a1.08,1.08,0,0,0-1.08,1.08V28a1.08,1.08,0,0,0,1.08,1.08h5.84c-.57,2.1-3.67,4.06-6.73,5a1.08,1.08,0,0,0-.76,1v3.07a1.08,1.08,0,0,0,1.36,1,25.64,25.64,0,0,0,6.15-2.56l4.33,2.46a1.08,1.08,0,0,0,1.62-.94V34.85A1.08,1.08,0,0,0,35.66,33.91Z"/><path class="cls-3" d="M48.89,29a29.91,29.91,0,0,1-6.56-1.3V25.08A1.08,1.08,0,0,0,41.26,24H37.87a1.08,1.08,0,0,0-1.08,1.08v13a1.08,1.08,0,0,0,1.08,1.08h3.38a1.08,1.08,0,0,0,1.08-1.08V33a41,41,0,0,0,6.28,1A1.09,1.09,0,0,0,49.84,33V30A1.07,1.07,0,0,0,48.89,29Z"/><path class="cls-4" d="M33.39,25.15a1.46,1.46,0,0,1,1.46,1.46v1.82a7.12,7.12,0,0,1-2.2,5l-.06.06,2.47,1.4v3.22l-4.82-2.74,0,0a24,24,0,0,1-6.3,2.74V35.21c3.67-1.15,7.6-3.76,7.6-6.78V28h-7V25.15Z"/><path class="cls-4" d="M41.19,25.15v3.28a25.82,25.82,0,0,0,7.5,1.67v2.83a32.32,32.32,0,0,1-7.5-1.47V38H37.94V25.15Z"/><path class="cls-3" d="M21.7,23.08H17a1.08,1.08,0,0,0-1.08,1.08v.24h0A1.08,1.08,0,0,0,15,24H11.93a1.08,1.08,0,0,0-1.06.87l-.19.95H9.05A1.08,1.08,0,0,0,8,26.9v2.95a1.08,1.08,0,0,0,1.08,1.08h.61l-.38,1.9c-.11.55-.31.87-1.18,1.26a1.08,1.08,0,0,0-.65,1v3.16a1.08,1.08,0,0,0,1.42,1c2.22-.73,4.85-2,5.55-5.53l.56-2.8H16.8c0,1,0,2.08,0,3.1H15.54a1.08,1.08,0,0,0-1.08,1.08v2.95a1.08,1.08,0,0,0,1.08,1.08h4.2a2.61,2.61,0,0,0,2.61-2.61v-8.1A2.59,2.59,0,0,0,22,27.09a1.08,1.08,0,0,0,.81-1V24.16A1.08,1.08,0,0,0,21.7,23.08Z"/><rect class="cls-4" x="17.04" y="24.23" width="1.73" height="1.74"/><rect class="cls-4" x="19.9" y="24.23" width="1.73" height="1.74"/><path class="cls-4" d="M15,25.15,14.6,27h5.14a1.46,1.46,0,0,1,1.46,1.46v8.1A1.46,1.46,0,0,1,19.74,38H15.61V35.18H18v-5.4H14l-.74,3.73c-.57,2.86-2.68,4-4.69,4.63v-3a2.67,2.67,0,0,0,1.81-2.07l.65-3.27H9.12V27h2.5L12,25.15Z"/></g><g id="レイヤー_7" data-name="レイヤー 7"><rect id="_スライス_" data-name="&lt;スライス&gt;" class="cls-5" width="55" height="55"/></g></g></svg>